{
    "asset" : {
        "generator" : "Khronos glTF Blender I/O v1.1.46",
        "version" : "2.0"
    },
    "scene" : 0,
    "scenes" : [
        {
            "name" : "Scene",
            "nodes" : [
                0
            ]
        }
    ],
    "nodes" : [
        {
            "mesh" : 0,
            "name" : "Haus3",
            "rotation" : [
                0.7071068286895752,
                0,
                0,
                0.7071067094802856
            ]
        }
    ],
    "materials" : [
        {
            "doubleSided" : true,
            "emissiveFactor" : [
                0,
                0,
                0
            ],
            "name" : "lambert252SG",
            "pbrMetallicRoughness" : {
                "baseColorTexture" : {
                    "index" : 0,
                    "texCoord" : 0
                },
                "metallicFactor" : 0,
                "roughnessFactor" : 1
            }
        },
        {
            "doubleSided" : true,
            "emissiveFactor" : [
                0,
                0,
                0
            ],
            "name" : "lambert251SG",
            "pbrMetallicRoughness" : {
                "baseColorTexture" : {
                    "index" : 1,
                    "texCoord" : 0
                },
                "metallicFactor" : 0,
                "roughnessFactor" : 1
            }
        }
    ],
    "meshes" : [
        {
            "name" : "Haus3",
            "primitives" : [
                {
                    "attributes" : {
                        "POSITION" : 0,
                        "NORMAL" : 1,
                        "TEXCOORD_0" : 2
                    },
                    "indices" : 3,
                    "material" : 0
                },
                {
                    "attributes" : {
                        "POSITION" : 4,
                        "NORMAL" : 5,
                        "TEXCOORD_0" : 6
                    },
                    "indices" : 7,
                    "material" : 1
                }
            ]
        }
    ],
    "textures" : [
        {
            "source" : 0
        },
        {
            "source" : 1
        }
    ],
    "images" : [
        {
            "mimeType" : "image/png",
            "name" : "s11",
            "uri" : "s11.png"
        },
        {
            "mimeType" : "image/png",
            "name" : "s22",
            "uri" : "s22.png"
        }
    ],
    "accessors" : [
        {
            "bufferView" : 0,
            "componentType" : 5126,
            "count" : 1889,
            "max" : [
                7.6801347732543945,
                6.489223957061768,
                0.017178000882267952
            ],
            "min" : [
                -8.652778625488281,
                -9.48139476776123,
                -20.588865280151367
            ],
            "type" : "VEC3"
        },
        {
            "bufferView" : 1,
            "componentType" : 5126,
            "count" : 1889,
            "type" : "VEC3"
        },
        {
            "bufferView" : 2,
            "componentType" : 5126,
            "count" : 1889,
            "type" : "VEC2"
        },
        {
            "bufferView" : 3,
            "componentType" : 5123,
            "count" : 7158,
            "type" : "SCALAR"
        },
        {
            "bufferView" : 4,
            "componentType" : 5126,
            "count" : 8,
            "max" : [
                7.492547035217285,
                7.348871231079102,
                0.3190839886665344
            ],
            "min" : [
                -8.230257034301758,
                -8.708274841308594,
                0
            ],
            "type" : "VEC3"
        },
        {
            "bufferView" : 5,
            "componentType" : 5126,
            "count" : 8,
            "type" : "VEC3"
        },
        {
            "bufferView" : 6,
            "componentType" : 5126,
            "count" : 8,
            "type" : "VEC2"
        },
        {
            "bufferView" : 7,
            "componentType" : 5123,
            "count" : 30,
            "type" : "SCALAR"
        }
    ],
    "bufferViews" : [
        {
            "buffer" : 0,
            "byteLength" : 22668,
            "byteOffset" : 0
        },
        {
            "buffer" : 0,
            "byteLength" : 22668,
            "byteOffset" : 22668
        },
        {
            "buffer" : 0,
            "byteLength" : 15112,
            "byteOffset" : 45336
        },
        {
            "buffer" : 0,
            "byteLength" : 14316,
            "byteOffset" : 60448
        },
        {
            "buffer" : 0,
            "byteLength" : 96,
            "byteOffset" : 74764
        },
        {
            "buffer" : 0,
            "byteLength" : 96,
            "byteOffset" : 74860
        },
        {
            "buffer" : 0,
            "byteLength" : 64,
            "byteOffset" : 74956
        },
        {
            "buffer" : 0,
            "byteLength" : 60,
            "byteOffset" : 75020
        }
    ],
    "buffers" : [
        {
            "byteLength" : 75080,
            "uri" : "h3.bin"
        }
    ]
}
