<?xml version="1.0" encoding="UTF-8" standalone="no"?>
<svg
   xmlns:dc="http://purl.org/dc/elements/1.1/"
   xmlns:cc="http://creativecommons.org/ns#"
   xmlns:rdf="http://www.w3.org/1999/02/22-rdf-syntax-ns#"
   xmlns:svg="http://www.w3.org/2000/svg"
   xmlns="http://www.w3.org/2000/svg"
   id="svg8"
   version="1.1"
   viewBox="0 0 270.93333 270.93334"
   height="1024"
   width="1024">
  <defs
     id="defs2" />
  <metadata
     id="metadata5">
    <rdf:RDF>
      <cc:Work
         rdf:about="">
        <dc:format>image/svg+xml</dc:format>
        <dc:type
           rdf:resource="http://purl.org/dc/dcmitype/StillImage" />
        <dc:title></dc:title>
      </cc:Work>
    </rdf:RDF>
  </metadata>
  <g
     transform="translate(0,-26.06665)"
     id="layer1">
    <path
       style="fill:#ff6600;fill-opacity:1;stroke:none;stroke-width:0.14298277"
       d="m 133.53916,102.57256 v 8.37624 h 1.61386 v -8.37624 z m 3.69073,0.008 -0.52606,8.35969 1.61075,0.1018 0.52607,-8.36021 z m -5.76347,0.11265 -1.61075,0.10129 0.52606,8.36021 1.61024,-0.10129 z m 9.44645,0.12454 -1.05006,8.3106 1.60094,0.20206 1.05006,-8.31061 z m -13.11909,0.22531 -1.60094,0.20257 1.04955,8.31009 1.60145,-0.20206 z m 16.77985,0.24081 -1.56941,8.22792 1.58492,0.30231 1.56993,-8.22792 z m -20.42355,0.33693 -1.58492,0.30231 1.56941,8.22792 1.58543,-0.30231 z m 24.04865,0.35554 -2.08307,8.11371 1.56321,0.40101 2.08308,-8.1132 z m -27.64895,0.44751 -1.56322,0.40153 2.08308,8.1132 1.56321,-0.40153 z m 31.22393,0.46974 -2.58847,7.96644 1.53479,0.49868 2.58847,-7.96644 z m -34.76738,0.55552 -1.53479,0.4992 2.58847,7.96644 1.53479,-0.49868 z m 38.27828,0.58188 -3.08353,7.78867 1.50016,0.59376 3.08354,-7.78815 z m -41.75146,0.66249 -1.50068,0.59428 3.08353,7.78816 1.50068,-0.59428 z m 45.18484,0.69143 -3.56671,7.57938 1.46038,0.6873 3.56619,-7.57938 z m -48.57378,0.76636 -1.46037,0.68678 3.5667,7.57939 1.46038,-0.68678 z m 51.91621,0.7984 -4.03541,7.34064 1.41387,0.77721 4.03541,-7.34012 z m -55.208,0.86714 -1.41387,0.77773 4.03542,7.34012 1.41387,-0.77722 z m 58.44656,0.90278 -4.48861,7.07244 1.36271,0.86506 4.48861,-7.07243 z m -61.62829,0.9648 -1.36271,0.86455 4.48863,7.07244 1.36271,-0.86455 z m 64.75058,1.00304 -4.92373,6.77685 1.30587,0.94878 4.92321,-6.77685 z m -67.80984,1.05833 -1.305863,0.94878 4.923753,6.77685 1.30587,-0.94878 z m 70.80346,1.1002 -5.33921,6.45438 1.24333,1.02836 5.33973,-6.45387 z m -73.728864,1.14825 -1.243335,1.02836 5.339219,6.45438 1.24386,-1.02887 z m 76.582954,1.19217 -5.73402,6.10609 1.17616,1.10484 5.73401,-6.10609 z m -79.362629,1.23352 -1.176155,1.10432 5.734018,6.10661 1.176156,-1.10485 z m 82.065309,1.28002 -6.10609,5.73402 1.10484,1.17616 6.10609,-5.73402 z m -84.688404,1.31362 -1.104842,1.17667 6.106086,5.73402 1.104844,-1.17668 z m 87.229334,1.36322 -6.45387,5.33921 1.02836,1.24333 6.45438,-5.3392 z m -89.686549,1.38907 -1.028877,1.24333 6.454386,5.33921 1.028877,-1.24334 z m 92.056429,1.44022 -6.77685,4.92373 0.94878,1.30586 6.77685,-4.92373 z m -94.337425,1.45934 -0.94878,1.30586 6.776847,4.92322 0.94878,-1.30535 z m 96.526435,1.51257 -7.07244,4.4881 0.86455,1.3627 7.07244,-4.48809 z m -98.622949,1.52342 -0.864547,1.36271 7.072437,4.48861 0.865063,-1.3627 z m 100.622829,1.57871 -7.34012,4.03542 0.77721,1.41386 7.34064,-4.03541 z m -102.526072,1.58182 -0.777213,1.41438 7.340121,4.03542 0.777729,-1.41439 z m 104.329062,1.63866 -7.57938,3.56671 0.68729,1.45986 7.57939,-3.56619 z m -106.031801,1.63453 -0.687295,1.46037 7.579381,3.56619 0.687298,-1.45986 z m 107.631181,1.69188 -7.78815,3.08354 0.59376,1.50068 7.78867,-3.08354 z m -109.127212,1.68052 -0.594281,1.50068 7.788156,3.08353 0.594278,-1.50068 z m 110.516282,1.73891 -7.96644,2.58847 0.49867,1.53479 7.96644,-2.58847 z m -111.799927,1.72031 -0.498676,1.53479 7.966438,2.58847 0.498678,-1.53479 z m 112.974007,1.77922 -8.11371,2.08308 0.40153,1.56321 8.11319,-2.08308 z m -114.039574,1.75286 -0.401526,1.56321 8.113718,2.08308 0.401008,-1.56321 z m 114.993014,1.81281 -8.22793,1.56942 0.30231,1.58543 8.22792,-1.56941 z m -115.836889,1.77922 -0.302308,1.58544 8.22792,1.56941 0.302308,-1.58544 z M 193.7205,151.93 l -8.3106,1.04954 0.20257,1.60094 8.31009,-1.04955 z m -117.185636,1.79834 -0.202573,1.60093 8.310605,1.05007 0.202055,-1.60145 z m 117.689486,1.85776 -8.36021,0.52607 0.10128,1.61076 8.36021,-0.52607 z m -118.081193,1.81075 -0.101288,1.61075 8.360214,0.52607 0.101285,-1.61076 z m 109.979873,1.87017 v 1.61385 h 8.37624 v -1.61385 z m -110.142137,1.81567 v 1.61385 h 8.376748 v -1.61385 z m 110.145247,1.61023 v 1.61386 h 8.37623 v -1.61386 z m -101.717855,1.55288 -8.359696,0.52607 0.101285,1.61075 8.359696,-0.52607 z m 101.566955,1.60559 -0.10128,1.61075 8.35969,0.52607 0.10129,-1.61076 z m -101.319427,1.54822 -8.310602,1.05007 0.202054,1.60093 8.310605,-1.04954 z m 100.972677,1.59474 -0.20257,1.60145 8.3106,1.04955 0.20206,-1.60094 z m -100.530325,1.53789 -8.227923,1.56993 0.302308,1.58492 8.227922,-1.56942 z m 99.988755,1.57768 -0.3023,1.58543 8.22792,1.56942 0.3023,-1.58492 z m -99.352102,1.52135 -8.113717,2.08308 0.401526,1.56321 8.113202,-2.08307 z m 98.618302,1.55443 -0.40153,1.56321 8.11372,2.08308 0.40101,-1.56321 z m -97.790963,1.49913 -7.966437,2.58848 0.498676,1.53479 7.96644,-2.58848 z m 96.867503,1.52549 -0.49868,1.53479 7.96644,2.58847 0.49868,-1.53479 z m -95.851542,1.47071 -7.788156,3.08354 0.593762,1.50068 7.788671,-3.08353 z m 94.742042,1.49035 -0.59427,1.50017 7.78815,3.08405 0.59428,-1.50069 z m -93.542117,1.43712 -7.579381,3.56619 0.687297,1.46038 7.579381,-3.56671 z m 92.250727,1.44953 -0.68729,1.45986 7.57938,3.5667 0.68678,-1.46037 z m -90.871484,1.39733 -7.340118,4.03541 0.777214,1.41439 7.340637,-4.03542 z m 89.402844,1.40301 -0.77722,1.41439 7.34012,4.03541 0.77773,-1.41438 z m -87.848932,1.35341 -7.072437,4.4881 0.864547,1.3627 7.072437,-4.48861 z m 86.209752,1.35082 -0.86455,1.36271 7.07244,4.4881 0.86455,-1.36219 z m -84.487894,1.30328 -6.776847,4.92321 0.94878,1.30587 6.776847,-4.92373 z m 82.683874,1.29398 -0.94878,1.30535 6.77685,4.92372 0.94826,-1.30534 z m -80.800269,1.24798 -6.454386,5.33973 1.028878,1.24333 6.45387,-5.33972 z m 78.838109,1.23197 -1.02888,1.24334 6.45439,5.33972 1.02836,-1.24385 z m -76.800505,1.18856 -6.106088,5.73401 1.104841,1.17616 6.106089,-5.73402 z m 74.687975,1.16478 -1.10484,1.17668 6.1066,5.73401 1.10433,-1.17667 z m -72.503615,1.12397 -5.734015,6.1066 1.176155,1.10433 5.734025,-6.10609 z m 70.248975,1.09399 -1.17616,1.10484 5.73402,6.10609 1.17667,-1.10485 z m -67.92663,1.05523 -5.33973,6.45387 1.243852,1.02888 5.339228,-6.45387 z m 65.53918,1.01803 -1.24385,1.02887 5.33972,6.45387 1.24334,-1.02836 z m -63.08815,0.98236 -4.92375,6.77685 1.30586,0.94878 4.92376,-6.77685 z m 60.57564,0.93845 -1.30535,0.94878 4.92321,6.77685 1.30587,-0.94878 z m -58.00473,0.9064 -4.48863,7.07244 1.36271,0.86455 4.48863,-7.07244 z m 55.37802,0.85525 -1.3622,0.86455 4.4881,7.07243 1.36271,-0.86455 z m -52.69756,0.82579 -4.03542,7.34064 1.41439,0.77721 4.03541,-7.34012 z m 49.96697,0.76894 -1.41438,0.77722 4.03541,7.34063 1.41438,-0.77773 z m -47.1873,0.74259 -3.5667,7.57939 1.46037,0.68677 3.56671,-7.57886 z m 44.36215,0.67955 -1.45986,0.68678 3.56619,7.57938 1.46038,-0.68729 z m -41.49411,0.65629 -3.08353,7.78815 1.50069,0.59428 3.08353,-7.78815 z m 38.5868,0.58756 -1.50069,0.59376 3.08354,7.78867 1.50068,-0.59428 z m -35.64072,0.56792 -2.58847,7.96644 1.53478,0.49868 2.58848,-7.96644 z m 32.66105,0.49248 -1.53479,0.4992 2.58848,7.96643 1.53479,-0.49867 z m -29.64935,0.47749 -2.08308,8.1132 1.56321,0.40153 2.08308,-8.11372 z m 26.60974,0.39636 -1.56321,0.40152 2.08308,8.1132 1.56321,-0.40152 z m -23.54326,0.38447 -1.56941,8.22792 1.58491,0.30283 1.56993,-8.22844 z m 20.45508,0.29869 -1.58492,0.30283 1.56942,8.22792 1.58543,-0.30231 z m -17.34623,0.29042 -1.04955,8.31061 1.60094,0.20205 1.05007,-8.3106 z m 14.22188,0.19999 -1.60094,0.20206 1.04955,8.3106 1.60145,-0.20257 z m -11.08202,0.19482 -0.52606,8.3597 1.61075,0.1018 0.52607,-8.36021 z m 7.93337,0.10025 -1.61076,0.10129 0.52607,8.3597 1.61024,-0.10129 z m -4.77542,0.0987 v 8.37676 h 1.61386 v -8.37676 z"
       id="rect10" />
    <path
       id="path4835"
       d="m 138.77218,93.702421 a 66.287452,66.287452 0 0 0 -66.287519,66.287499 66.287452,66.287452 0 0 0 2.680525,18.52828 62.418537,62.418537 0 0 1 -2.164867,-16.20732 62.418537,62.418537 0 0 1 62.418581,-62.418067 62.418537,62.418537 0 0 1 62.41857,62.418067 62.418537,62.418537 0 0 1 -62.41857,62.41858 62.418537,62.418537 0 0 1 -35.13158,-10.83332 66.287452,66.287452 0 0 0 38.48486,12.38128 66.287452,66.287452 0 0 0 66.287,-66.2875 66.287452,66.287452 0 0 0 -66.287,-66.287499 z"
       style="fill:#ff6600;fill-opacity:1;stroke:none;stroke-width:0.25533554;stroke-opacity:1" />
    <path
       id="path4948"
       transform="matrix(0.26458333,0,0,0.26458333,0,26.06665)"
       d="M 545.99219 23.232422 L 536.27344 245.44727 L 560.42969 247.7793 L 588.9375 27.376953 L 545.99219 23.232422 z M 592.86914 80.886719 L 567.5293 248.78711 L 591.06055 255.31641 L 631.58789 90.646484 L 592.86914 80.886719 z M 67.501953 356.7793 L 46.048828 474.33594 L 269.26562 488.5 L 281.33398 422.375 L 67.501953 356.7793 z M 949.08789 415.40234 L 775.51758 446.04102 L 777.86523 465.10352 L 953.26367 449.28906 L 949.08789 415.40234 z M 1001.0254 451.99023 L 779.39453 470.79688 L 780.17383 495.05273 L 1002.4121 495.11328 L 1001.0254 451.99023 z M 780.90625 503.0332 L 779.38672 520.55469 L 990.4375 536.29297 L 993.13672 505.14258 L 780.90625 503.0332 z M 310.34375 630.26562 L 114.11914 734.59766 L 135.59766 772.01562 L 322.42578 651.3125 L 310.34375 630.26562 z M 730.03711 671.19922 L 700.63281 699.37891 L 782.26758 807.32617 L 834.54297 757.22852 L 730.03711 671.19922 z M 630.66211 746.88281 L 579.31445 759.06445 L 600.57812 929.48828 L 691.86328 907.83008 L 630.66211 746.88281 z "
       style="fill:none;fill-opacity:1;stroke:#ff6600;stroke-width:3.4301815;stroke-miterlimit:4;stroke-dasharray:none;stroke-opacity:1" />
    <path
       id="path5307"
       d="m 136.94523,66.812989 -20.17326,-16.473958 9.23021,40.972202 9.1619,-1.207642 z m -24.29399,-17.61613 -14.785125,5.468408 16.477335,39.849527 8.56805,-2.581654 z m 55.05956,22.653675 -5.44812,23.270132 8.19485,3.202914 L 189.651,60.081068 Z M 94.571763,56.819663 83.445235,65.377865 103.95621,98.725702 111.4461,95.317473 Z m 99.155147,3.439054 -20.38532,39.554696 7.51376,4.577507 26.26041,-35.73065 z m -112.718652,7.386638 -9.990606,10.162334 24.538112,26.771681 5.829166,-4.56884 z m 129.392052,3.13727 -26.94357,35.414365 6.25735,4.88615 31.48673,-30.859183 z m -141.201909,9.582409 -8.41415,11.931571 27.020298,19.769695 5.581466,-5.56254 z m 154.807799,2.246847 -32.10529,30.545039 3.98982,5.48177 37.24439,-23.668434 z m -164.637222,12.857083 -5.293636,13.055156 26.59311,13.12915 5.272838,-7.16583 z m 175.683302,2.598268 -37.77872,22.788768 3.98674,7.83729 40.60734,-17.81389 z m -181.79685,13.625048 -3.266985,12.95889 25.172754,7.64791 4.12985,-7.73112 z m 188.84112,3.02574 -39.76706,16.96578 2.81326,8.33646 31.50333,-4.93279 z m -172.162552,44.83024 -20.374467,1.31207 2.02096,11.94934 18.694315,-4.31757 z m 137.209662,7.75922 -1.40413,8.62635 39.93727,11.63723 -9.90931,-16.60571 z m -136.496528,4.3806 -17.378267,4.2318 9.706117,8.9749 10.485933,-4.87026 z m 134.262558,7.53547 -2.5086,8.19433 35.83008,18.0635 8.23309,-13.34286 z m -4.09691,11.37139 -4.5775,7.51428 29.55841,21.72374 10.03504,-11.19105 z m -19.77915,25.1101 -7.72098,4.21886 10.67687,24.3396 12.38219,-4.69945 z m -54.43645,10.93679 -2.36668,9.97152 8.79841,8.48601 2.13672,-16.72636 z m 11.9455,2.04108 -2.17712,18.80883 11.96257,1.24177 -0.9896,-20.71191 z"
       style="fill:none;fill-opacity:0.99343543;stroke:#ff6600;stroke-width:2.11666656;stroke-miterlimit:4;stroke-dasharray:none;stroke-opacity:1" />
    <path
       id="path4948-0-97"
       d="M 89.290937,203.69374 52.555674,232.421 47.368885,225.02471 86.37339,199.53333"
       style="fill:none;fill-opacity:1;stroke:#ff6600;stroke-width:0.4318372;stroke-miterlimit:4;stroke-dasharray:none;stroke-opacity:1" />
    <path
       id="path4948-0-9-6"
       d="m 80.949633,191.0513 -49.83507,25.88226 -3.240849,-7.61171 51.252963,-22.55208"
       style="fill:none;fill-opacity:1;stroke:#ff6600;stroke-width:0.45312607;stroke-miterlimit:4;stroke-dasharray:none;stroke-opacity:1" />
  </g>
</svg>
