{
    "asset" : {
        "generator" : "Khronos glTF Blender I/O v1.1.46",
        "version" : "2.0"
    },
    "scene" : 0,
    "scenes" : [
        {
            "name" : "Scene",
            "nodes" : [
                0
            ]
        }
    ],
    "nodes" : [
        {
            "mesh" : 0,
            "name" : "Haus1",
            "rotation" : [
                0.7071068286895752,
                0,
                0,
                0.7071067094802856
            ]
        }
    ],
    "materials" : [
        {
            "doubleSided" : true,
            "emissiveFactor" : [
                0,
                0,
                0
            ],
            "name" : "lambert86SG",
            "pbrMetallicRoughness" : {
                "baseColorTexture" : {
                    "index" : 0,
                    "texCoord" : 0
                },
                "metallicFactor" : 0.17000000178813934,
                "roughnessFactor" : 1
            }
        },
        {
            "doubleSided" : true,
            "emissiveFactor" : [
                0,
                0,
                0
            ],
            "name" : "lambert89SG",
            "pbrMetallicRoughness" : {
                "baseColorFactor" : [
                    1,
                    0.9100000262260437,
                    0,
                    1
                ],
                "metallicFactor" : 1,
                "roughnessFactor" : 1
            }
        },
        {
            "doubleSided" : true,
            "emissiveFactor" : [
                0,
                0,
                0
            ],
            "name" : "lambert87SG",
            "pbrMetallicRoughness" : {
                "baseColorTexture" : {
                    "index" : 1,
                    "texCoord" : 0
                },
                "metallicFactor" : 0.10999999940395355,
                "roughnessFactor" : 1
            }
        },
        {
            "doubleSided" : true,
            "emissiveFactor" : [
                0,
                0,
                0
            ],
            "name" : "lambert88SG",
            "pbrMetallicRoughness" : {
                "baseColorFactor" : [
                    1,
                    0.9100000262260437,
                    0,
                    1
                ],
                "metallicFactor" : 1,
                "roughnessFactor" : 1
            }
        }
    ],
    "meshes" : [
        {
            "name" : "Haus1",
            "primitives" : [
                {
                    "attributes" : {
                        "POSITION" : 0,
                        "NORMAL" : 1,
                        "TEXCOORD_0" : 2
                    },
                    "indices" : 3,
                    "material" : 0
                },
                {
                    "attributes" : {
                        "POSITION" : 4,
                        "NORMAL" : 5,
                        "TEXCOORD_0" : 6
                    },
                    "indices" : 7,
                    "material" : 1
                },
                {
                    "attributes" : {
                        "POSITION" : 8,
                        "NORMAL" : 9,
                        "TEXCOORD_0" : 10
                    },
                    "indices" : 11,
                    "material" : 2
                },
                {
                    "attributes" : {
                        "POSITION" : 12,
                        "NORMAL" : 13,
                        "TEXCOORD_0" : 14
                    },
                    "indices" : 15,
                    "material" : 3
                }
            ]
        }
    ],
    "textures" : [
        {
            "source" : 0
        },
        {
            "source" : 1
        }
    ],
    "images" : [
        {
            "mimeType" : "image/png",
            "name" : "ht1",
            "uri" : "ht1.png"
        },
        {
            "mimeType" : "image/png",
            "name" : "haus1tex",
            "uri" : "haus1tex.png"
        }
    ],
    "accessors" : [
        {
            "bufferView" : 0,
            "componentType" : 5126,
            "count" : 1661,
            "max" : [
                7.153317928314209,
                10.449094772338867,
                0.07379700243473053
            ],
            "min" : [
                -9.52366828918457,
                -11.794801712036133,
                -18.272035598754883
            ],
            "type" : "VEC3"
        },
        {
            "bufferView" : 1,
            "componentType" : 5126,
            "count" : 1661,
            "type" : "VEC3"
        },
        {
            "bufferView" : 2,
            "componentType" : 5126,
            "count" : 1661,
            "type" : "VEC2"
        },
        {
            "bufferView" : 3,
            "componentType" : 5123,
            "count" : 6174,
            "type" : "SCALAR"
        },
        {
            "bufferView" : 4,
            "componentType" : 5126,
            "count" : 16,
            "max" : [
                -6.302059173583984,
                10.449094772338867,
                -5.325900077819824
            ],
            "min" : [
                -7.07521915435791,
                6.655592918395996,
                -6.030633926391602
            ],
            "type" : "VEC3"
        },
        {
            "bufferView" : 5,
            "componentType" : 5126,
            "count" : 16,
            "type" : "VEC3"
        },
        {
            "bufferView" : 6,
            "componentType" : 5126,
            "count" : 16,
            "type" : "VEC2"
        },
        {
            "bufferView" : 7,
            "componentType" : 5123,
            "count" : 60,
            "type" : "SCALAR"
        },
        {
            "bufferView" : 8,
            "componentType" : 5126,
            "count" : 139,
            "max" : [
                7.840228080749512,
                12,
                0.18057799339294434
            ],
            "min" : [
                -10.614751815795898,
                -12,
                -2.5324039459228516
            ],
            "type" : "VEC3"
        },
        {
            "bufferView" : 9,
            "componentType" : 5126,
            "count" : 139,
            "type" : "VEC3"
        },
        {
            "bufferView" : 10,
            "componentType" : 5126,
            "count" : 139,
            "type" : "VEC2"
        },
        {
            "bufferView" : 11,
            "componentType" : 5123,
            "count" : 405,
            "type" : "SCALAR"
        },
        {
            "bufferView" : 12,
            "componentType" : 5126,
            "count" : 160,
            "max" : [
                5.3799519538879395,
                3.042175054550171,
                -2.172300100326538
            ],
            "min" : [
                -8.299884796142578,
                -10.402841567993164,
                -8.655986785888672
            ],
            "type" : "VEC3"
        },
        {
            "bufferView" : 13,
            "componentType" : 5126,
            "count" : 160,
            "type" : "VEC3"
        },
        {
            "bufferView" : 14,
            "componentType" : 5126,
            "count" : 160,
            "type" : "VEC2"
        },
        {
            "bufferView" : 15,
            "componentType" : 5123,
            "count" : 240,
            "type" : "SCALAR"
        }
    ],
    "bufferViews" : [
        {
            "buffer" : 0,
            "byteLength" : 19932,
            "byteOffset" : 0
        },
        {
            "buffer" : 0,
            "byteLength" : 19932,
            "byteOffset" : 19932
        },
        {
            "buffer" : 0,
            "byteLength" : 13288,
            "byteOffset" : 39864
        },
        {
            "buffer" : 0,
            "byteLength" : 12348,
            "byteOffset" : 53152
        },
        {
            "buffer" : 0,
            "byteLength" : 192,
            "byteOffset" : 65500
        },
        {
            "buffer" : 0,
            "byteLength" : 192,
            "byteOffset" : 65692
        },
        {
            "buffer" : 0,
            "byteLength" : 128,
            "byteOffset" : 65884
        },
        {
            "buffer" : 0,
            "byteLength" : 120,
            "byteOffset" : 66012
        },
        {
            "buffer" : 0,
            "byteLength" : 1668,
            "byteOffset" : 66132
        },
        {
            "buffer" : 0,
            "byteLength" : 1668,
            "byteOffset" : 67800
        },
        {
            "buffer" : 0,
            "byteLength" : 1112,
            "byteOffset" : 69468
        },
        {
            "buffer" : 0,
            "byteLength" : 810,
            "byteOffset" : 70580
        },
        {
            "buffer" : 0,
            "byteLength" : 1920,
            "byteOffset" : 71392
        },
        {
            "buffer" : 0,
            "byteLength" : 1920,
            "byteOffset" : 73312
        },
        {
            "buffer" : 0,
            "byteLength" : 1280,
            "byteOffset" : 75232
        },
        {
            "buffer" : 0,
            "byteLength" : 480,
            "byteOffset" : 76512
        }
    ],
    "buffers" : [
        {
            "byteLength" : 76992,
            "uri" : "h1.bin"
        }
    ]
}
