{
	"asset":{
		"generator":"Khronos glTF Blender I/O v3.6.27",
		"version":"2.0"
	},
	"extensionsUsed":[
		"KHR_materials_specular",
		"KHR_materials_ior"
	],
	"scene":0,
	"scenes":[
		{
			"name":"Scene",
			"nodes":[
				0
			]
		}
	],
	"nodes":[
		{
			"mesh":0,
			"name":"1-_DAY",
			"rotation":[
				0.7071068286895752,
				0,
				0,
				0.7071068286895752
			]
		}
	],
	"materials":[
		{
			"doubleSided":true,
			"extensions":{
				"KHR_materials_specular":{
					"specularColorFactor":[
						1,
						1,
						1
					]
				},
				"KHR_materials_ior":{
					"ior":1
				}
			},
			"name":"DAY",
			"pbrMetallicRoughness":{
				"baseColorTexture":{
					"index":0
				},
				"metallicFactor":0,
				"roughnessFactor":0.9007570743560791
			}
		}
	],
	"meshes":[
		{
			"name":"1-_DAY",
			"primitives":[
				{
					"attributes":{
						"POSITION":0,
						"NORMAL":1,
						"TEXCOORD_0":2
					},
					"indices":3,
					"material":0
				}
			]
		}
	],
	"textures":[
		{
			"sampler":0,
			"source":0
		}
	],
	"images":[
		{
			"bufferView":4,
			"mimeType":"image/jpeg",
			"name":"texture"
		}
	],
	"accessors":[
		{
			"bufferView":0,
			"componentType":5126,
			"count":11713,
			"max":[
				85.75257110595703,
				-10.354100227355957,
				0.12104900181293488
			],
			"min":[
				-100.26699829101562,
				-80.61441040039062,
				-21.11468505859375
			],
			"type":"VEC3"
		},
		{
			"bufferView":1,
			"componentType":5126,
			"count":11713,
			"type":"VEC3"
		},
		{
			"bufferView":2,
			"componentType":5126,
			"count":11713,
			"type":"VEC2"
		},
		{
			"bufferView":3,
			"componentType":5123,
			"count":20847,
			"type":"SCALAR"
		}
	],
	"bufferViews":[
		{
			"buffer":0,
			"byteLength":140556,
			"byteOffset":0,
			"target":34962
		},
		{
			"buffer":0,
			"byteLength":140556,
			"byteOffset":140556,
			"target":34962
		},
		{
			"buffer":0,
			"byteLength":93704,
			"byteOffset":281112,
			"target":34962
		},
		{
			"buffer":0,
			"byteLength":41694,
			"byteOffset":374816,
			"target":34963
		},
		{
			"buffer":0,
			"byteLength":1371770,
			"byteOffset":416512
		}
	],
	"samplers":[
		{
			"magFilter":9729,
			"minFilter":9987
		}
	],
	"buffers":[
		{
			"byteLength":1788284,
			"uri":"data:application/octet-stream;base64,"
		}
	]
}
