{
    "asset" : {
        "generator" : "Khronos glTF Blender I/O v1.7.33",
        "version" : "2.0"
    },
    "scene" : 0,
    "scenes" : [
        {
            "name" : "Scene",
            "nodes" : [
                0,
                1,
                2,
                3,
                4,
                5,
                6,
                7,
                8,
                9,
                10,
                11,
                12,
                13
            ]
        }
    ],
    "nodes" : [
        {
            "mesh" : 0,
            "name" : "Cylinder",
            "rotation" : [
                0,
                -0.7071068286895752,
                0,
                0.7071068286895752
            ]
        },
        {
            "mesh" : 1,
            "name" : "Icosphere",
            "translation" : [
                -19.099695205688477,
                0,
                -9.549848556518555
            ]
        },
        {
            "mesh" : 1,
            "name" : "Icosphere.001",
            "rotation" : [
                0,
                0.5735512375831604,
                0,
                0.819169819355011
            ],
            "scale" : [
                1.2015891075134277,
                1.2015891075134277,
                1.2015891075134277
            ],
            "translation" : [
                -8.14545726776123,
                3.6997437477111816,
                -21.136062622070312
            ]
        },
        {
            "mesh" : 1,
            "name" : "Icosphere.002",
            "scale" : [
                0.583611249923706,
                0.583611249923706,
                0.583611249923706
            ],
            "translation" : [
                -17.975988388061523,
                3.216125965118408,
                -16.95541763305664
            ]
        },
        {
            "mesh" : 1,
            "name" : "Icosphere.003",
            "rotation" : [
                0,
                0.8052489161491394,
                0,
                -0.5929369330406189
            ],
            "scale" : [
                1.44302499294281,
                1.44302499294281,
                1.44302499294281
            ],
            "translation" : [
                -44.612998962402344,
                -1.021301031112671,
                -15.432744979858398
            ]
        },
        {
            "mesh" : 1,
            "name" : "Icosphere.004",
            "rotation" : [
                0,
                0.31955569982528687,
                0,
                -0.9475675225257874
            ],
            "scale" : [
                1.733923077583313,
                1.733923077583313,
                1.733923077583313
            ],
            "translation" : [
                -33.33985137939453,
                4.317521572113037,
                4.625083923339844
            ]
        },
        {
            "mesh" : 1,
            "name" : "Icosphere.005",
            "rotation" : [
                0,
                0.8052489161491394,
                0,
                -0.5929369330406189
            ],
            "scale" : [
                0.8421655297279358,
                0.8421656489372253,
                0.8421655297279358
            ],
            "translation" : [
                -34.889644622802734,
                3.6196489334106445,
                -10.712014198303223
            ]
        },
        {
            "mesh" : 1,
            "name" : "Icosphere.006",
            "rotation" : [
                0,
                0.9827715158462524,
                0,
                -0.18482479453086853
            ],
            "scale" : [
                0.7987063527107239,
                0.7987062335014343,
                0.7987063527107239
            ],
            "translation" : [
                38.11794662475586,
                0.46404051780700684,
                3.028040885925293
            ]
        },
        {
            "mesh" : 1,
            "name" : "Icosphere.007",
            "rotation" : [
                0,
                0.6990501284599304,
                0,
                -0.7150726914405823
            ],
            "scale" : [
                0.9597166776657104,
                0.9597166776657104,
                0.9597166776657104
            ],
            "translation" : [
                33.328269958496094,
                3.41904878616333,
                14.82820987701416
            ]
        },
        {
            "mesh" : 1,
            "name" : "Icosphere.008",
            "rotation" : [
                0,
                0.9827715158462524,
                0,
                -0.18482479453086853
            ],
            "scale" : [
                0.46613389253616333,
                0.4661339521408081,
                0.46613389253616333
            ],
            "translation" : [
                39.43050765991211,
                3.032780170440674,
                8.864855766296387
            ]
        },
        {
            "mesh" : 1,
            "name" : "Icosphere.009",
            "rotation" : [
                0,
                0.9827715158462524,
                0,
                -0.18482479453086853
            ],
            "scale" : [
                0.7987063527107239,
                0.7987062335014343,
                0.7987063527107239
            ],
            "translation" : [
                26.040197372436523,
                0.46404051780700684,
                7.381648063659668
            ]
        },
        {
            "mesh" : 1,
            "name" : "Icosphere.010",
            "rotation" : [
                0,
                0.6990501284599304,
                0,
                -0.7150726914405823
            ],
            "scale" : [
                0.9597166776657104,
                0.9597166776657104,
                0.9597166776657104
            ],
            "translation" : [
                21.250520706176758,
                3.41904878616333,
                19.18181610107422
            ]
        },
        {
            "mesh" : 0,
            "name" : "Cylinder.001",
            "rotation" : [
                0,
                -0.9826064705848694,
                0,
                0.18570001423358917
            ],
            "scale" : [
                0.6968036890029907,
                0.6968036890029907,
                0.6968036890029907
            ],
            "translation" : [
                94.73085021972656,
                10.806622505187988,
                -101.15533447265625
            ]
        },
        {
            "mesh" : 0,
            "name" : "Cylinder.002",
            "rotation" : [
                0,
                -0.9879222512245178,
                0,
                0.15495052933692932
            ],
            "scale" : [
                1.6736090183258057,
                1.6736090183258057,
                1.6736090183258057
            ],
            "translation" : [
                34.7824821472168,
                10.664262771606445,
                131.15895080566406
            ]
        }
    ],
    "materials" : [
        {
            "doubleSided" : true,
            "name" : "concrete",
            "pbrMetallicRoughness" : {
                "baseColorFactor" : [
                    0.3757486641407013,
                    0.3757486641407013,
                    0.3757486641407013,
                    1
                ],
                "metallicFactor" : 0,
                "roughnessFactor" : 0.4000000059604645
            }
        },
        {
            "doubleSided" : true,
            "name" : "rgass",
            "pbrMetallicRoughness" : {
                "baseColorFactor" : [
                    0.34776899218559265,
                    0.8000000715255737,
                    0.042117889970541,
                    1
                ],
                "metallicFactor" : 0,
                "roughnessFactor" : 0.5
            }
        },
        {
            "doubleSided" : true,
            "name" : "ground",
            "pbrMetallicRoughness" : {
                "baseColorFactor" : [
                    0.19017592072486877,
                    0.08515506982803345,
                    0.02319224178791046,
                    1
                ],
                "metallicFactor" : 0,
                "roughnessFactor" : 0.5
            }
        }
    ],
    "meshes" : [
        {
            "name" : "Cylinder",
            "primitives" : [
                {
                    "attributes" : {
                        "POSITION" : 0,
                        "NORMAL" : 1,
                        "TEXCOORD_0" : 2
                    },
                    "indices" : 3,
                    "material" : 0
                },
                {
                    "attributes" : {
                        "POSITION" : 4,
                        "NORMAL" : 5,
                        "TEXCOORD_0" : 6
                    },
                    "indices" : 7,
                    "material" : 1
                },
                {
                    "attributes" : {
                        "POSITION" : 8,
                        "NORMAL" : 9,
                        "TEXCOORD_0" : 10
                    },
                    "indices" : 11,
                    "material" : 2
                }
            ]
        },
        {
            "name" : "Icosphere",
            "primitives" : [
                {
                    "attributes" : {
                        "POSITION" : 12,
                        "NORMAL" : 13,
                        "TEXCOORD_0" : 14
                    },
                    "indices" : 15,
                    "material" : 2
                },
                {
                    "attributes" : {
                        "POSITION" : 16,
                        "NORMAL" : 17,
                        "TEXCOORD_0" : 18
                    },
                    "indices" : 19,
                    "material" : 1
                }
            ]
        }
    ],
    "accessors" : [
        {
            "bufferView" : 0,
            "componentType" : 5126,
            "count" : 308,
            "max" : [
                14.867197036743164,
                2.499999761581421,
                14.867197036743164
            ],
            "min" : [
                -14.867197036743164,
                -0.10000000149011612,
                -15.499397277832031
            ],
            "type" : "VEC3"
        },
        {
            "bufferView" : 1,
            "componentType" : 5126,
            "count" : 308,
            "type" : "VEC3"
        },
        {
            "bufferView" : 2,
            "componentType" : 5126,
            "count" : 308,
            "type" : "VEC2"
        },
        {
            "bufferView" : 3,
            "componentType" : 5123,
            "count" : 888,
            "type" : "SCALAR"
        },
        {
            "bufferView" : 4,
            "componentType" : 5126,
            "count" : 386,
            "max" : [
                16.939769744873047,
                -0.10000000149011612,
                17.556318283081055
            ],
            "min" : [
                -17.249425888061523,
                -0.5421496629714966,
                -16.922311782836914
            ],
            "type" : "VEC3"
        },
        {
            "bufferView" : 5,
            "componentType" : 5126,
            "count" : 386,
            "type" : "VEC3"
        },
        {
            "bufferView" : 6,
            "componentType" : 5126,
            "count" : 386,
            "type" : "VEC2"
        },
        {
            "bufferView" : 7,
            "componentType" : 5123,
            "count" : 1434,
            "type" : "SCALAR"
        },
        {
            "bufferView" : 8,
            "componentType" : 5126,
            "count" : 390,
            "max" : [
                16.939769744873047,
                -0.5421496629714966,
                17.556318283081055
            ],
            "min" : [
                -17.249425888061523,
                -15.16640853881836,
                -16.922311782836914
            ],
            "type" : "VEC3"
        },
        {
            "bufferView" : 9,
            "componentType" : 5126,
            "count" : 390,
            "type" : "VEC3"
        },
        {
            "bufferView" : 10,
            "componentType" : 5126,
            "count" : 390,
            "type" : "VEC2"
        },
        {
            "bufferView" : 11,
            "componentType" : 5123,
            "count" : 1722,
            "type" : "SCALAR"
        },
        {
            "bufferView" : 12,
            "componentType" : 5126,
            "count" : 37,
            "max" : [
                2.3776397705078125,
                1.0864871740341187,
                2.5
            ],
            "min" : [
                -2.3776397705078125,
                -3.220550298690796,
                -2.4999990463256836
            ],
            "type" : "VEC3"
        },
        {
            "bufferView" : 13,
            "componentType" : 5126,
            "count" : 37,
            "type" : "VEC3"
        },
        {
            "bufferView" : 14,
            "componentType" : 5126,
            "count" : 37,
            "type" : "VEC2"
        },
        {
            "bufferView" : 15,
            "componentType" : 5123,
            "count" : 120,
            "type" : "SCALAR"
        },
        {
            "bufferView" : 16,
            "componentType" : 5126,
            "count" : 37,
            "max" : [
                2.3776397705078125,
                1.9389185905456543,
                2.5
            ],
            "min" : [
                -2.3776397705078125,
                0.7695041298866272,
                -2.4999990463256836
            ],
            "type" : "VEC3"
        },
        {
            "bufferView" : 17,
            "componentType" : 5126,
            "count" : 37,
            "type" : "VEC3"
        },
        {
            "bufferView" : 18,
            "componentType" : 5126,
            "count" : 37,
            "type" : "VEC2"
        },
        {
            "bufferView" : 19,
            "componentType" : 5123,
            "count" : 120,
            "type" : "SCALAR"
        }
    ],
    "bufferViews" : [
        {
            "buffer" : 0,
            "byteLength" : 3696,
            "byteOffset" : 0
        },
        {
            "buffer" : 0,
            "byteLength" : 3696,
            "byteOffset" : 3696
        },
        {
            "buffer" : 0,
            "byteLength" : 2464,
            "byteOffset" : 7392
        },
        {
            "buffer" : 0,
            "byteLength" : 1776,
            "byteOffset" : 9856
        },
        {
            "buffer" : 0,
            "byteLength" : 4632,
            "byteOffset" : 11632
        },
        {
            "buffer" : 0,
            "byteLength" : 4632,
            "byteOffset" : 16264
        },
        {
            "buffer" : 0,
            "byteLength" : 3088,
            "byteOffset" : 20896
        },
        {
            "buffer" : 0,
            "byteLength" : 2868,
            "byteOffset" : 23984
        },
        {
            "buffer" : 0,
            "byteLength" : 4680,
            "byteOffset" : 26852
        },
        {
            "buffer" : 0,
            "byteLength" : 4680,
            "byteOffset" : 31532
        },
        {
            "buffer" : 0,
            "byteLength" : 3120,
            "byteOffset" : 36212
        },
        {
            "buffer" : 0,
            "byteLength" : 3444,
            "byteOffset" : 39332
        },
        {
            "buffer" : 0,
            "byteLength" : 444,
            "byteOffset" : 42776
        },
        {
            "buffer" : 0,
            "byteLength" : 444,
            "byteOffset" : 43220
        },
        {
            "buffer" : 0,
            "byteLength" : 296,
            "byteOffset" : 43664
        },
        {
            "buffer" : 0,
            "byteLength" : 240,
            "byteOffset" : 43960
        },
        {
            "buffer" : 0,
            "byteLength" : 444,
            "byteOffset" : 44200
        },
        {
            "buffer" : 0,
            "byteLength" : 444,
            "byteOffset" : 44644
        },
        {
            "buffer" : 0,
            "byteLength" : 296,
            "byteOffset" : 45088
        },
        {
            "buffer" : 0,
            "byteLength" : 240,
            "byteOffset" : 45384
        }
    ],
    "buffers" : [
        {
            "byteLength" : 45624,
            "uri" : "model.bin"
        }
    ]
}
